# xmcd
#
# Track frame offsets:
#	150
#	12768
#	25432
#	38472
#	50250
#	61816
#	74422
#	89181
#	101396
#	113828
#	126141
#	136920
#	148703
#	161011
#	173664
#	187528
#	199589
#	214700
#	227291
#	240088
#	250190
#	263706
#
# Disc length: 3694 seconds
#
# Revision: 0
# Processed by: cddbd v1.5.1PL0 Copyright (c) Steve Scherf et al.
# Submitted via: dBpowerAMP V4.0
#
DISCID=190e6c16
DTITLE="Champion" Jack Dupree - Junker Blues
DYEAR=2000
DGENRE=Blues
TTITLE0=Love Strike Blues
TTITLE1=Warehouse Man Blues
TTITLE2=Angola Blues
TTITLE3=Big Time Mama
TTITLE4=That's All Right
TTITLE5=Black Woman Swing
TTITLE6=County Jail Special
TTITLE7=Junker's Blues
TTITLE8=Outside Man
TTITLE9=All Alone Blues
TTITLE10=Rum Cola Blues #2
TTITLE11=Cabbage Greens
TTITLE12=Gin Mill Sal
TTITLE13=Johnson Street Boogie Woogie
TTITLE14=Mean Mistreatin' Mama
TTITLE15=Big Legged Woman
TTITLE16=I Think You Need A Shot
TTITLE17=Gamblin' Man Blues
TTITLE18=Mean Black Snake
TTITLE19=Fifth Avenue Woman Blues
TTITLE20=New Low Down Dog
TTITLE21=Weed Head Woman
EXTD=
EXTT0=
EXTT1=
EXTT2=
EXTT3=
EXTT4=
EXTT5=
EXTT6=
EXTT7=
EXTT8=
EXTT9=
EXTT10=
EXTT11=
EXTT12=
EXTT13=
EXTT14=
EXTT15=
EXTT16=
EXTT17=
EXTT18=
EXTT19=
EXTT20=
EXTT21=
PLAYORDER=
